<?xml version="1.0"?>
<svg xmlns="http://www.w3.org/2000/svg" xmlns:xlink="http://www.w3.org/1999/xlink" version="1.1" id="Capa_1" x="0px" y="0px" viewBox="0 0 469.334 469.334" style="enable-background:new 0 0 469.334 469.334;" xml:space="preserve" width="512px" height="512px" class=""><g><g>
	<g>
		<path d="M364.375,234.67l103.49-175.917c2.313-3.938,1.865-8.917-1.125-12.375c-2.979-3.479-7.854-4.646-12.073-2.938    l-448,181.333C2.635,226.42,0,230.316,0,234.67c0,4.354,2.635,8.25,6.667,9.896l448,181.333c1.292,0.521,2.656,0.771,4,0.771    c3.031,0,6.01-1.292,8.073-3.708c2.99-3.458,3.438-8.438,1.125-12.375L364.375,234.67z M39.094,234.67L433.542,75.024    l-70.875,120.479v-35.5c0-3.521-1.74-6.813-4.646-8.813c-2.917-1.979-6.615-2.438-9.885-1.125l-191.802,74.583    c-0.833,0.313-1.625,0.708-2.344,1.208c-0.646,0.438-1.24,0.958-1.771,1.521c-1.375,1.458-2.344,3.313-2.719,5.396    c-0.073,0.417-0.125,0.854-0.146,1.292c-0.146,2.5,0.583,4.854,1.938,6.771c0.01,0,0.01,0.021,0.021,0.021l0.01,0.021    c0.26,0.375,0.552,0.708,0.854,1.042c0.01-0.021,0.01,0.021,0.021,0.021c1.052,1.125,2.354,2.042,3.823,2.625l202.51,85.271    c4.188,1.771,9.156,0.646,12.198-2.854c3.021-3.479,3.458-8.521,1.083-12.458l-32-53.333c-1.573-2.625-4.177-4.438-7.177-5    l-57.865-10.854h71.125l87.646,148.979L39.094,234.67z M341.333,175.587v48.417H216.854L341.333,175.587z M256.021,263.524    l67.969,12.75l12.74,21.229L256.021,263.524z" data-original="#000000" class="active-path" data-old_color="#000000" fill="#6B6F82"/>
	</g>
</g></g> </svg>
