<?xml version="1.0"?>
<svg xmlns="http://www.w3.org/2000/svg" xmlns:xlink="http://www.w3.org/1999/xlink" version="1.1" id="Capa_1" x="0px" y="0px" viewBox="0 0 512 512" style="enable-background:new 0 0 512 512;" xml:space="preserve" width="512px" height="512px"><g><g>
	<g>
		<path d="M312.292,49.995c-8.75-2.552-17.021-4.958-19.521-6.208c-14.146-7.073-24.042-28.76-26.667-36.51    c-1.458-4.344-5.521-7.271-10.104-7.271c0,0,0,0-0.021,0c-4.583,0.01-8.646,2.938-10.104,7.281    c-2.563,7.74-12.396,29.375-26.646,36.5c-2.5,1.25-10.771,3.656-19.521,6.208C145.083,65.891,0,108.12,0,223.995    c0,0.875,0.104,1.74,0.313,2.583c4.396,17.552,24.458,50.75,69.021,50.75c29.271,0,48.167-14.906,58.875-30    c11.313,15.094,31.646,30,63.792,30c23.824,0,41.257-8.525,53.333-19.186v205.853c0,14.708-11.958,26.667-26.667,26.667    c-14.708,0-26.667-11.958-26.667-26.667v-5.333c0-5.896-4.771-10.667-10.667-10.667c-5.896,0-10.667,4.771-10.667,10.667v5.333    c0,26.469,21.542,48,48,48c26.458,0,48-21.531,48-48V258.539c12,10.475,29.365,18.789,53.333,18.789    c31.542,0,51.917-14.938,63.438-30.01c10.521,15.115,29.375,30.01,59.229,30.01c43.563,0,64.146-33.042,68.958-50.51    c0.25-0.917,0.375-1.865,0.375-2.823C512,108.12,366.917,65.891,312.292,49.995z M117.418,222.034    c-1.549,4.759-12.445,33.961-48.085,33.961c-35.271,0-46.063-27.5-48-33.49c1.151-88.031,103.009-127.173,164.009-145.966    C153.526,102.065,118.043,146.163,117.418,222.034z M245.333,222.187c-2.178,5.775-14.736,33.807-53.333,33.807    c-39.525,0-51.249-27.768-53.268-33.54c0.704-99.454,67.046-136.586,95.477-152.47c5.117-2.859,8.436-4.901,11.125-6.909V222.187z     M320,255.995c-40.059,0-51.552-28.497-53.333-33.728V63.07c2.689,2.012,6.008,4.055,11.125,6.914    c28.423,15.879,94.734,52.997,95.474,152.389C370.788,228.753,357.98,255.995,320,255.995z M442.667,255.995    c-36.842,0-46.859-29.691-48.079-33.837c-0.585-75.952-36.098-120.079-67.932-145.62    c60.973,18.781,162.766,57.896,163.991,145.832C488.438,228.724,476.917,255.995,442.667,255.995z" data-original="#000000" class="active-path" data-old_color="#000000" fill="#6B6F82"/>
	</g>
</g></g> </svg>
